<svg
  xmlns="http://www.w3.org/2000/svg"
  viewBox="24 68 171 35"
  role="img"
  aria-label="NinesPro"
>
  <path
    fill="currentColor"
    d="m 29.447595,101.24729 c -1.578972,-0.39884 -2.873503,-1.504413 -3.458952,-2.954063 l -0.218559,-0.54118 v -11.79177 -11.79178 l 0.348365,-0.70233 c 0.809281,-1.63158 2.865352,-3.20783 4.03083,-3.09016 0.292769,0.0296 0.536488,0.41637 8.277421,13.13748 4.386673,7.20886 7.994663,13.19848 8.017755,13.31026 0.128146,0.62031 -0.653006,2.11777 -1.579604,3.02809 -0.91635,0.900253 -2.104103,1.530583 -2.884119,1.530583 -0.176995,0 -1.088054,-1.444713 -5.852758,-9.280993 l -5.643133,-9.28098 -0.02403,9.28098 -0.02403,9.280993 -0.258852,-0.008 c -0.142368,-0.004 -0.471016,-0.0616 -0.730327,-0.12711 z m 23.187524,-0.007 c -1.613021,-0.43498 -2.856437,-1.508313 -3.464206,-2.990343 l -0.204224,-0.498 -0.02512,-13.69637 -0.02512,-13.69637 h 0.321645 c 0.850523,0 2.281855,0.68621 3.097249,1.48488 0.521312,0.51062 1.04607,1.46569 1.194322,2.1737 0.07382,0.35253 0.104631,4.45561 0.104631,13.93211 v 13.432423 l -0.259312,-0.006 c -0.142621,-0.003 -0.475562,-0.0645 -0.739868,-0.1358 z m 7.126913,-0.0346 c -1.627537,-0.52096 -3.405048,-2.493833 -3.636304,-4.035963 -0.05865,-0.39109 0.01834,-0.5224 7.981133,-13.61322 l 8.040352,-13.21832 0.457194,0.0439 c 1.281172,0.1231 3.095198,1.57764 3.821815,3.06444 l 0.357535,0.73159 v 11.73974 c 0,11.08445 -0.0095,11.76705 -0.170617,12.22885 -0.408744,1.17171 -1.378161,2.212773 -2.570993,2.760993 -0.552983,0.25415 -1.361895,0.47457 -1.741591,0.47457 -0.180383,0 -0.183896,-0.15711 -0.207523,-9.281743 l -0.02403,-9.28174 -5.645544,9.28174 c -6.32549,10.399633 -5.621863,9.437883 -6.661424,9.105133 z m 23.223003,0.0312 c -1.46293,-0.39399 -2.7465,-1.443823 -3.302569,-2.701173 -0.21615,-0.48875 -0.407858,-1.32727 -0.378621,-1.65606 l 0.01887,-0.21217 8.160037,0.001 c 9.072839,0.002 8.791636,-0.0163 10.033238,0.63617 1.384071,0.72731 2.35225,2.07953 2.481735,3.466163 l 0.05705,0.61104 -8.288029,-0.006 c -6.820958,-0.005 -8.375421,-0.0297 -8.781712,-0.13916 z m 23.196605,0 c -1.3731,-0.36979 -2.687,-1.415623 -3.24181,-2.580373 -0.20752,-0.43566 -0.45117,-1.38231 -0.45733,-1.77686 l -0.003,-0.21217 6.95426,-9.2e-4 6.95427,-9.2e-4 0.47147,-0.22375 c 0.5539,-0.26288 1.16828,-0.87533 1.47634,-1.47172 l 0.21918,-0.42433 0.0296,-5.42197 c 0.0163,-2.98208 0.0453,-5.47013 0.0645,-5.52899 0.0546,-0.16772 0.85936,0.0165 1.51458,0.34677 1.11071,0.55982 2.22423,1.6975 2.76484,2.82484 l 0.2487,0.51863 0.0267,5.03014 c 0.0298,5.61005 0.022,5.69799 -0.59655,6.71624 -0.63821,1.050613 -1.7947,1.873013 -3.10394,2.207263 -0.80198,0.20475 -12.56051,0.20308 -13.32158,-0.002 z m 23.18225,-0.004 c -1.62152,-0.43608 -3.10302,-1.844383 -3.49651,-3.323753 -0.13556,-0.50966 -0.14293,-10.1836 -0.008,-10.65367 0.38429,-1.33996 1.95906,-2.97726 3.37202,-3.50591 0.48585,-0.18178 0.75078,-0.19221 5.4319,-0.21383 4.47727,-0.0207 4.95449,-0.0378 5.29104,-0.18975 0.57464,-0.25945 1.10777,-0.74973 1.46885,-1.35077 l 0.33003,-0.54937 v -2.17246 c 0,-2.09138 -0.008,-2.18775 -0.21866,-2.58219 -0.27975,-0.52421 -0.92189,-1.16635 -1.4461,-1.4461 l -0.40973,-0.21866 -6.9868,-0.027 -6.98679,-0.027 0.0746,-0.47217 c 0.2342,-1.48152 1.76304,-3.25403 3.36985,-3.90693 l 0.58654,-0.23833 6.48,0.0255 6.48,0.0255 0.58491,0.29671 c 1.20822,0.61292 2.34072,1.75935 2.87397,2.90932 l 0.21863,0.47148 v 5.32767 5.32768 l -0.34683,0.70933 c -0.59058,1.20785 -1.76405,2.15922 -3.18278,2.5804 -0.44757,0.13287 -1.26515,0.15204 -6.48279,0.15204 h -5.97063 v 6.60066 6.600663 l -0.25931,-0.006 c -0.14262,-0.003 -0.48792,-0.0677 -0.76734,-0.14283 z m 27.61788,-6.419653 c -7.51988,-6.188 -7.9696,-6.57501 -7.99749,-6.88237 -0.11883,-1.30952 1.71083,-3.53299 3.43947,-4.17976 0.48032,-0.17971 0.76224,-0.19081 5.4319,-0.21383 4.80128,-0.0237 4.93596,-0.0293 5.3496,-0.22484 0.60815,-0.28742 1.14208,-0.78638 1.46458,-1.36863 l 0.27988,-0.50531 v -2.16879 -2.16879 l -0.27988,-0.50531 c -0.30173,-0.54476 -0.81594,-1.04004 -1.41743,-1.36525 -0.37557,-0.20306 -0.40685,-0.20404 -7.34311,-0.23097 l -6.96593,-0.027 0.0434,-0.45195 c 0.1248,-1.2988 1.68382,-3.1774 3.23308,-3.8958 l 0.47148,-0.21863 6.47851,-0.0261 6.47852,-0.0261 0.58485,0.23765 c 1.34064,0.54475 2.7018,1.92417 3.19794,3.24084 0.18127,0.48107 0.1896,0.72379 0.18952,5.5172 -7e-5,4.21186 -0.023,5.09123 -0.14344,5.49672 -0.39107,1.31689 -1.38445,2.35794 -2.87951,3.01769 l -0.61078,0.26953 -4.42397,0.0472 -4.42396,0.0471 6.2758,4.24328 6.2758,4.24329 -0.0445,0.42432 c -0.1195,1.13901 -0.56355,2.03632 -1.38973,2.80823 -0.86838,0.811353 -2.23866,1.449793 -3.06718,1.429073 -0.17328,-0.004 -2.44246,-1.818783 -8.20744,-6.562703 z m 18.76009,6.390613 c -1.65098,-0.44573 -2.99291,-1.710063 -3.43379,-3.235223 -0.13201,-0.45668 -0.15075,-0.95188 -0.12494,-3.30033 0.0303,-2.75759 0.0309,-2.76407 0.27782,-3.28456 0.54785,-1.15464 1.75894,-2.37003 2.8807,-2.89093 0.48148,-0.22358 1.39204,-0.42513 1.48784,-0.32933 0.0267,0.0267 0.0486,1.49544 0.0486,3.26385 0,3.08243 0.008,3.23081 0.19772,3.59107 0.29299,0.55686 0.91851,1.16977 1.45245,1.42317 0.46993,0.22302 0.483,0.22376 3.99721,0.22468 3.44948,9e-4 3.53476,-0.004 3.94295,-0.20745 0.61829,-0.30878 1.08369,-0.7461 1.39806,-1.31367 l 0.27988,-0.50531 0.0281,-3.27714 0.0281,-3.27714 0.3962,0.0577 c 0.21791,0.0317 0.74364,0.22278 1.16829,0.42457 1.09646,0.52103 2.13482,1.56457 2.6934,2.70683 l 0.40062,0.81923 0.0326,2.31023 c 0.0438,3.10913 -0.0701,3.77836 -0.83019,4.87826 -0.61106,0.884213 -1.90976,1.740913 -3.03087,1.999353 -0.25849,0.0596 -2.72429,0.0943 -6.54397,0.0923 -5.55901,-0.003 -6.18663,-0.0189 -6.74675,-0.1701 z M 79.331291,87.819607 c 0.04413,-0.44363 0.337253,-1.20412 0.663001,-1.72014 0.339271,-0.53744 1.357139,-1.53481 1.950528,-1.91126 1.081833,-0.68631 0.913844,-0.66724 6.169298,-0.70027 4.036697,-0.0254 4.823167,-0.008 5.367601,0.11821 1.075482,0.24943 1.956471,0.83815 2.848134,1.90328 0.597652,0.71393 1.026626,1.57222 1.117629,2.23616 l 0.05969,0.43551 h -9.10592 -9.105923 z m 26.891259,0.25818 c -1.27741,-0.30061 -2.69376,-1.40995 -3.23908,-2.53696 -0.49182,-1.01644 -0.5241,-1.45266 -0.48898,-6.60799 l 0.0318,-4.67494 0.40387,-0.81484 c 0.54341,-1.09633 1.61059,-2.17747 2.65183,-2.68652 l 0.71609,-0.35008 6.50081,-0.0255 6.50081,-0.0255 0.66562,0.31841 c 0.3661,0.17512 0.89435,0.49158 1.17389,0.70325 0.99232,0.75135 1.94564,2.20543 2.05582,3.13567 l 0.0545,0.46002 -6.96699,0.027 -6.96699,0.027 -0.41013,0.21886 c -0.58943,0.31455 -1.16459,0.8773 -1.43234,1.40143 l -0.23202,0.4542 -0.0265,5.53984 -0.0265,5.53984 -0.30358,-0.01 c -0.16696,-0.005 -0.46488,-0.0474 -0.66204,-0.0938 z m 69.52396,-4.65228 c -0.55381,-0.15434 -1.36594,-0.56899 -1.83721,-0.93802 -0.78223,-0.61251 -1.25585,-1.27834 -1.5622,-2.19617 -0.18177,-0.54457 -0.19238,-0.7623 -0.16544,-3.39462 l 0.0288,-2.81273 0.34726,-0.66007 c 0.63185,-1.20098 1.50583,-2.06901 2.71733,-2.69881 l 0.61292,-0.31863 6.17633,-0.0472 c 3.39699,-0.0259 6.37914,-0.0177 6.62701,0.0183 1.68764,0.24519 3.74284,2.25298 4.1123,4.01743 0.13581,0.64856 0.13597,4.48486 2.2e-4,5.29173 -0.28394,1.68776 -1.54659,3.07052 -3.35796,3.67738 -0.3225,0.10805 -0.73415,0.19645 -0.91477,0.19645 h -0.32841 l -0.0282,-3.22961 c -0.0281,-3.219 -0.0289,-3.2311 -0.2602,-3.68381 -0.26775,-0.52413 -0.84292,-1.08688 -1.43234,-1.40143 -0.40839,-0.21793 -0.42542,-0.21886 -3.99702,-0.21886 h -3.58688 l -0.54937,0.33003 c -0.60432,0.36305 -1.09597,0.89938 -1.34647,1.46885 -0.14082,0.32011 -0.16774,0.79831 -0.19995,3.55237 l -0.0372,3.18246 -0.29711,-0.008 c -0.16341,-0.005 -0.48805,-0.0617 -0.72143,-0.12669 z m -88.4263,-8.42269 -8.039691,-0.0241 0.05517,-0.40023 c 0.03034,-0.22012 0.225923,-0.75456 0.434624,-1.18764 0.504987,-1.04791 1.562813,-2.11521 2.608864,-2.63224 l 0.712465,-0.35215 8.480366,-0.0251 8.480362,-0.0251 -0.0459,0.40709 c -0.09624,0.85384 -0.974709,2.30592 -1.825711,3.01783 -0.774144,0.64761 -1.809537,1.15282 -2.49084,1.21537 -0.181518,0.0167 -3.947894,0.0195 -8.369723,0.006 z"
  />
</svg>
