<svg width="480" height="72" viewBox="0 0 480 72" fill="none" xmlns="http://www.w3.org/2000/svg" role="img" aria-label="NinesPro">
  <title>NinesPro</title>

  <defs>
    <mask id="o-cut">
      <rect x="0" y="0" width="480" height="72" fill="black"/>
      <rect x="424" y="10" width="48" height="52" rx="12" fill="white"/>
      <rect x="437" y="23" width="22" height="26" rx="4" fill="black"/>
    </mask>
  </defs>

  <g fill="#111827" transform="translate(4 10)">
    <!-- N -->
    <path d="M0 8C0 3.58 3.58 0 8 0H12V52H8C3.58 52 0 48.42 0 44V8Z"/>
    <path d="M16 0H27L52 52H40L16 12V0Z"/>
    <path d="M56 0H60C64.42 0 68 3.58 68 8V44C68 48.42 64.42 52 60 52H56V0Z"/>

    <!-- I -->
    <path d="M82 0H128C128 6.63 122.63 12 116 12H82V0Z"/>
    <path d="M99 12H111V40H99V12Z"/>
    <path d="M82 40H128V52H94C87.37 52 82 46.63 82 40Z"/>

    <!-- N -->
    <path d="M144 8C144 3.58 147.58 0 152 0H156V52H152C147.58 52 144 48.42 144 44V8Z"/>
    <path d="M160 0H171L196 52H184L160 12V0Z"/>
    <path d="M200 0H204C208.42 0 212 3.58 212 8V44C212 48.42 208.42 52 204 52H200V0Z"/>

    <!-- E -->
    <path d="M228 8C228 3.58 231.58 0 236 0H282V12H240V20H276V32H240V40H282V52H236C231.58 52 228 48.42 228 44V8Z"/>

    <!-- S -->
    <path d="M298 8C298 3.58 301.58 0 306 0H352V12H310V20H344C348.42 20 352 23.58 352 28V44C352 48.42 348.42 52 344 52H298V40H340V32H306C301.58 32 298 28.42 298 24V8Z"/>

    <!-- P -->
    <path d="M368 0H408C412.42 0 416 3.58 416 8V28C416 32.42 412.42 36 408 36H380V52H368V0Z"/>
    <path d="M380 12V24H404V12H380Z" fill="white"/>

    <!-- R -->
    <path d="M368 0H408C412.42 0 416 3.58 416 8V28C416 32.42 412.42 36 408 36H396L418 52H398L380 38V52H368V0Z" transform="translate(58 0)"/>
    <path d="M438 12V24H462V12H438Z" fill="white"/>

    <!-- O -->
    <rect x="424" y="10" width="48" height="52" rx="12" fill="#111827" mask="url(#o-cut)"/>
  </g>
</svg>
