<svg
  xmlns="http://www.w3.org/2000/svg"
  viewBox="0 0 670 670"
  role="img"
  aria-label="NinesPro"
>
  <rect width="670" height="670" rx="140" fill="#111827" />
  <g transform="matrix(3.05 0 0 3.05 -574 -688)">
    <path
      fill="#ffffff"
      d="m 250.32089,370.17896 c -14.54374,-29.39198 -26.5704,-52.94198 -26.72591,-52.33333 -0.15551,0.60864 -2.19283,23.30663 -4.52738,50.43996 -2.33455,27.13334 -4.43311,49.54313 -4.66346,49.79956 -0.23036,0.25642 -2.53946,-0.23366 -5.13133,-1.08905 -5.78752,-1.91005 -16.26822,-13.24032 -17.97905,-19.43642 -0.88875,-3.21879 0.25132,-21.80651 3.98015,-64.89249 2.87411,-33.20988 5.55704,-62.38547 5.96207,-64.83463 1.39673,-8.44596 16.62087,-21.54697 25.03883,-21.54697 2.93917,0 5.70762,4.98771 29.71979,53.5439 14.56329,29.44915 26.63348,52.39915 26.82264,51 0.18915,-1.39914 1.79604,-19.14032 3.57085,-39.42484 2.14126,-24.47265 3.89378,-38.15461 5.20898,-40.66666 2.51787,-4.80914 9.62886,-11.52558 15.14336,-14.30313 5.49567,-2.76807 9.83271,-2.7117 46.56361,0.60518 27.13656,2.4505 31.12324,3.11607 36.12674,6.03128 5.59188,3.25803 12.45982,11.72495 14.31475,17.64748 0.53399,1.70493 -0.0817,15.39182 -1.36821,30.41532 -2.1988,25.67724 -2.56486,27.67144 -6.10358,33.25142 -2.07047,3.2648 -6.59004,7.7279 -10.0435,9.91802 -7.62752,4.83723 -10.85642,4.93035 -49.09026,1.41574 -14.66667,-1.34822 -26.87367,-2.26535 -27.12667,-2.03807 -0.253,0.22729 -1.30601,10.20625 -2.34002,22.17547 -1.03401,11.96923 -2.2143,23.76609 -2.62287,26.21526 -1.40978,8.4509 -16.6321,21.54697 -25.04529,21.54697 -2.93879,0 -5.70731,-4.98411 -29.68424,-53.43997 z m 119.60665,-43.61298 c 3.82506,-3.41769 4.2753,-4.7257 5.5468,-16.11433 1.53788,-13.77444 0.099,-19.40673 -5.97466,-23.38632 -3.46566,-2.27078 -38.44042,-5.71786 -43.95968,-4.33262 -5.63865,1.41522 -10.08272,7.04832 -11.00697,13.95196 -2.49977,18.67174 -0.62222,26.19779 7.38634,29.60773 3.85026,1.63939 21.18819,3.53474 34.86624,3.81151 8.07418,0.16337 9.39846,-0.19314 13.14193,-3.53793 z"
    />
  </g>
</svg>
